# xmcd CD database file
#
# Track frame offsets:
#	150
#	22625
#	102105
#	128110
#	156203
#
# Disc length: 2405 seconds
#
# Revision: 0
# Processed by: cddbd v1.4PL0 Copyright (c) Steve Scherf et al.
# Submitted via: CDex 1.50beta10
#
DISCID=2d096305
DTITLE=Irakere - The Best Of Irakere [CD2]
DYEAR=1900
DGENRE=Jazz
TTITLE0=Aguanile
TTITLE1=Misa Negra
TTITLE2=Adagio on a Mozart Theme
TTITLE3=Xiomara
TTITLE4=Por Romper el Coco
EXTD=
EXTT0=
EXTT1=
EXTT2=
EXTT3=
EXTT4=
PLAYORDER=
